<svg width="14" height="14" viewBox="0 0 14 14" fill="none" xmlns="http://www.w3.org/2000/svg">
<path d="M6.3335 3.66671H7.66683V5.00004H6.3335V3.66671ZM6.3335 6.33337H7.66683V10.3334H6.3335V6.33337ZM7.00016 0.333374C3.32016 0.333374 0.333496 3.32004 0.333496 7.00004C0.333496 10.68 3.32016 13.6667 7.00016 13.6667C10.6802 13.6667 13.6668 10.68 13.6668 7.00004C13.6668 3.32004 10.6802 0.333374 7.00016 0.333374ZM7.00016 12.3334C4.06016 12.3334 1.66683 9.94004 1.66683 7.00004C1.66683 4.06004 4.06016 1.66671 7.00016 1.66671C9.94016 1.66671 12.3335 4.06004 12.3335 7.00004C12.3335 9.94004 9.94016 12.3334 7.00016 12.3334Z" fill="#1D54B4"/>
</svg>