<svg width="9" height="5" viewBox="0 0 9 5" fill="none" xmlns="http://www.w3.org/2000/svg">
<path d="M0.223752 4.55431C0.531543 4.86916 0.960049 4.89387 1.33632 4.55431L4.09513 1.90915L6.85395 4.55431C7.23022 4.89387 7.65943 4.86916 7.9651 4.55431C8.27289 4.24017 8.25313 3.7093 7.9651 3.41422C7.67849 3.11914 4.65071 0.236071 4.65071 0.236071C4.57861 0.161345 4.49219 0.101912 4.39662 0.0613189C4.30104 0.0207257 4.19827 -0.000195503 4.09443 -0.000195503C3.99059 -0.000195503 3.88782 0.0207257 3.79224 0.0613189C3.69666 0.101912 3.61025 0.161345 3.53815 0.236071C3.53815 0.236071 0.511776 3.11914 0.223752 3.41422C-0.0649778 3.7093 -0.0840382 4.24017 0.223752 4.55431Z" fill="#999999"/>
</svg>
