<svg width="9" height="5" viewBox="0 0 9 5" fill="none" xmlns="http://www.w3.org/2000/svg">
<path d="M0.223752 0.24549C0.531543 -0.0693596 0.960049 -0.0940675 1.33632 0.24549L4.09513 2.89065L6.85395 0.24549C7.23022 -0.0940675 7.65943 -0.0693596 7.9651 0.24549C8.27289 0.559634 8.25313 1.0905 7.9651 1.38559C7.67849 1.68067 4.65071 4.56373 4.65071 4.56373C4.57861 4.63846 4.49219 4.69789 4.39662 4.73849C4.30104 4.77908 4.19827 4.8 4.09443 4.8C3.99059 4.8 3.88782 4.77908 3.79224 4.73849C3.69666 4.69789 3.61025 4.63846 3.53815 4.56373C3.53815 4.56373 0.511776 1.68067 0.223752 1.38559C-0.0649778 1.0905 -0.0840382 0.559634 0.223752 0.24549Z" fill="#999999"/>
</svg>
