<svg width="17" height="14" viewBox="0 0 17 14" fill="none" xmlns="http://www.w3.org/2000/svg">
<path fill-rule="evenodd" clip-rule="evenodd" d="M6.98975 0C6.43746 0 5.98975 0.447715 5.98975 1V4C5.98975 4.55228 6.43746 5 6.98975 5H7.98975V9H1.98975C1.43746 9 0.989746 9.44771 0.989746 10V11C0.989746 11.5523 1.43746 12 1.98975 12H15.9897C16.542 12 16.9897 11.5523 16.9897 11V10C16.9897 9.44772 16.542 9 15.9897 9H9.98975V5H10.9897C11.542 5 11.9897 4.55228 11.9897 4V1C11.9897 0.447715 11.542 0 10.9897 0H6.98975ZM1.98975 13.5C1.98975 13.2239 2.2136 13 2.48975 13H15.4897C15.7659 13 15.9897 13.2239 15.9897 13.5C15.9897 13.7761 15.7659 14 15.4897 14H2.48975C2.2136 14 1.98975 13.7761 1.98975 13.5Z" fill="#E5E5E5"/>
</svg>
