<svg width="17" height="14" viewBox="0 0 17 14" fill="none" xmlns="http://www.w3.org/2000/svg">
<g clip-path="url(#clip0)">
<path d="M16.5405 3.24297L14.7658 0.410156C14.6073 0.155859 14.3256 0 14.0248 0H2.97795C2.67717 0 2.39553 0.155859 2.23694 0.410156L0.462328 3.24297C-0.453688 4.70586 0.358422 6.74023 2.07014 6.97266C2.19319 6.98906 2.31897 6.99727 2.44475 6.99727C3.25413 6.99727 3.97053 6.6418 4.46272 6.09219C4.95491 6.6418 5.67405 6.99727 6.48069 6.99727C7.29006 6.99727 8.00647 6.6418 8.49866 6.09219C8.99084 6.6418 9.70999 6.99727 10.5166 6.99727C11.326 6.99727 12.0424 6.6418 12.5346 6.09219C13.0295 6.6418 13.7459 6.99727 14.5526 6.99727C14.6811 6.99727 14.8041 6.98906 14.9272 6.97266C16.6444 6.74297 17.4592 4.70859 16.5405 3.24297ZM14.558 7.875C14.2846 7.875 14.0139 7.83398 13.7514 7.77109V10.5H3.25139V7.77109C2.98889 7.83125 2.71819 7.875 2.44475 7.875C2.28069 7.875 2.11389 7.86406 1.95256 7.84219C1.79944 7.82031 1.64905 7.78477 1.50412 7.74375V13.125C1.50412 13.609 1.89514 14 2.37913 14H14.6291C15.1131 14 15.5041 13.609 15.5041 13.125V7.74375C15.3565 7.7875 15.2088 7.82305 15.0557 7.84219C14.8889 7.86406 14.7248 7.875 14.558 7.875Z" fill="#5801FF"/>
</g>
<defs>
<clipPath id="clip0">
<rect width="16.8438" height="14" fill="white" transform="translate(0.0793457)"/>
</clipPath>
</defs>
</svg>
