<svg width="15" height="14" viewBox="0 0 15 14" fill="none" xmlns="http://www.w3.org/2000/svg">
<g clip-path="url(#clip0)">
<path d="M8.1731 10.5001H5.9856C5.62192 10.5001 5.32935 10.2076 5.32935 9.8439V5.25015H2.9313C2.44458 5.25015 2.20122 4.66226 2.54575 4.31772L6.70474 0.156006C6.90981 -0.0490723 7.24614 -0.0490723 7.45122 0.156006L11.6129 4.31772C11.9575 4.66226 11.7141 5.25015 11.2274 5.25015H8.82935V9.8439C8.82935 10.2076 8.53677 10.5001 8.1731 10.5001ZM14.0793 10.2814V13.3439C14.0793 13.7076 13.7868 14.0001 13.4231 14.0001H0.735596C0.371924 14.0001 0.0793457 13.7076 0.0793457 13.3439V10.2814C0.0793457 9.91772 0.371924 9.62515 0.735596 9.62515H4.45435V9.8439C4.45435 10.6888 5.14067 11.3751 5.9856 11.3751H8.1731C9.01802 11.3751 9.70435 10.6888 9.70435 9.8439V9.62515H13.4231C13.7868 9.62515 14.0793 9.91772 14.0793 10.2814ZM10.6887 12.6876C10.6887 12.3869 10.4426 12.1408 10.1418 12.1408C9.84106 12.1408 9.59497 12.3869 9.59497 12.6876C9.59497 12.9884 9.84106 13.2345 10.1418 13.2345C10.4426 13.2345 10.6887 12.9884 10.6887 12.6876ZM12.4387 12.6876C12.4387 12.3869 12.1926 12.1408 11.8918 12.1408C11.5911 12.1408 11.345 12.3869 11.345 12.6876C11.345 12.9884 11.5911 13.2345 11.8918 13.2345C12.1926 13.2345 12.4387 12.9884 12.4387 12.6876Z" fill="#E5E5E5"/>
</g>
<defs>
<clipPath id="clip0">
<rect width="14" height="14" fill="white" transform="translate(0.0793457)"/>
</clipPath>
</defs>
</svg>
