<svg width="15" height="14" viewBox="0 0 15 14" fill="none" xmlns="http://www.w3.org/2000/svg">
<g clip-path="url(#clip0)">
<path d="M14.1941 7C14.1941 10.746 11.1578 13.7812 7.41284 13.7812C3.66792 13.7812 0.631592 10.746 0.631592 7C0.631592 3.25618 3.66792 0.21875 7.41284 0.21875C11.1578 0.21875 14.1941 3.25618 14.1941 7ZM7.59481 2.46094C6.10466 2.46094 5.15425 3.08867 4.40793 4.20432C4.31124 4.34886 4.34359 4.54379 4.48217 4.64888L5.43097 5.36829C5.57329 5.47621 5.77607 5.45054 5.88665 5.31027C6.37512 4.69071 6.71005 4.33144 7.45353 4.33144C8.01214 4.33144 8.70308 4.69096 8.70308 5.23264C8.70308 5.64214 8.36503 5.85244 7.81348 6.16167C7.17025 6.52225 6.31909 6.97104 6.31909 8.09375V8.20312C6.31909 8.38433 6.46601 8.53125 6.64722 8.53125H8.17847C8.35967 8.53125 8.50659 8.38433 8.50659 8.20312V8.16668C8.50659 7.38842 10.7812 7.35602 10.7812 5.25C10.7812 3.66401 9.13607 2.46094 7.59481 2.46094ZM7.41284 9.24219C6.71927 9.24219 6.15503 9.80643 6.15503 10.5C6.15503 11.1935 6.71927 11.7578 7.41284 11.7578C8.10642 11.7578 8.67065 11.1935 8.67065 10.5C8.67065 9.80643 8.10642 9.24219 7.41284 9.24219Z" fill="#5801FF"/>
</g>
<defs>
<clipPath id="clip0">
<rect width="14" height="14" fill="white" transform="translate(0.412842)"/>
</clipPath>
</defs>
</svg>
