<svg width="15" height="12" viewBox="0 0 15 12" fill="none" xmlns="http://www.w3.org/2000/svg">
<path d="M7.49995 9.37506C5.72221 9.37506 4.28315 7.99905 4.15073 6.2553L1.69214 4.35522C1.36893 4.76069 1.07151 5.18936 0.831512 5.65811C0.777897 5.76416 0.749962 5.88134 0.749962 6.00018C0.749962 6.11902 0.777897 6.23619 0.831512 6.34225C2.10253 8.82217 4.61878 10.5001 7.49995 10.5001C8.13065 10.5001 8.73909 10.4063 9.3255 10.2549L8.10932 9.31389C7.90847 9.35269 7.70451 9.37316 7.49995 9.37506ZM14.8551 10.7368L12.2641 8.73428C13.0512 8.07098 13.6985 7.25779 14.1684 6.34201C14.222 6.23596 14.2499 6.11878 14.2499 5.99994C14.2499 5.8811 14.222 5.76393 14.1684 5.65787C12.8974 3.17795 10.3811 1.50006 7.49995 1.50006C6.29327 1.50152 5.10619 1.8053 4.04714 2.38366L1.06542 0.0790459C1.02654 0.0487898 0.982073 0.0264921 0.93457 0.0134268C0.887067 0.000361472 0.837454 -0.00321528 0.788568 0.00290091C0.739682 0.00901711 0.692481 0.0247064 0.649661 0.0490721C0.606841 0.0734379 0.569241 0.106003 0.539012 0.144905L0.0789337 0.737171C0.0179021 0.815683 -0.00944578 0.915221 0.00290487 1.01389C0.0152555 1.11257 0.0662933 1.2023 0.144793 1.26334L13.9345 11.9211C13.9734 11.9513 14.0178 11.9736 14.0653 11.9867C14.1128 11.9998 14.1624 12.0033 14.2113 11.9972C14.2602 11.9911 14.3074 11.9754 14.3502 11.951C14.3931 11.9267 14.4307 11.8941 14.4609 11.8552L14.9212 11.263C14.9822 11.1844 15.0095 11.0849 14.9971 10.9862C14.9847 10.8875 14.9336 10.7978 14.8551 10.7368ZM10.5492 7.40865L9.62807 6.69662C9.70564 6.47244 9.74679 6.23727 9.74995 6.00006C9.75452 5.65278 9.67758 5.30926 9.52532 4.99711C9.37305 4.68496 9.14969 4.41286 8.87319 4.20269C8.59669 3.99252 8.27475 3.85012 7.93323 3.78694C7.59171 3.72375 7.24014 3.74155 6.90675 3.83889C7.04808 4.0304 7.12453 4.26205 7.12495 4.50006C7.12145 4.57926 7.10935 4.65785 7.08886 4.73444L5.36362 3.40108C5.96291 2.90027 6.71895 2.62564 7.49995 2.62506C7.94323 2.62481 8.38221 2.71194 8.7918 2.88147C9.20138 3.05099 9.57354 3.29958 9.88698 3.61303C10.2004 3.92647 10.449 4.29863 10.6185 4.70821C10.7881 5.1178 10.8752 5.55678 10.8749 6.00006C10.8749 6.50701 10.751 6.97951 10.5492 7.40889V7.40865Z" fill="#707683"/>
</svg>
