<svg width="13" height="27" viewBox="0 0 13 27" fill="none" xmlns="http://www.w3.org/2000/svg">
<path d="M7.16602 0C8.82287 0 10.166 1.34315 10.166 3C10.166 4.65685 8.82287 6 7.16602 6V5C8.27059 5 9.16602 4.10457 9.16602 3C9.16602 1.89543 8.27059 1 7.16602 1V0Z" fill="#999999"/>
<path d="M7.16602 7H11.666C12.2183 7 12.666 7.44772 12.666 8V16.5C12.666 16.7761 12.4422 17 12.166 17C11.8899 17 11.666 16.7761 11.666 16.5V8.5C11.666 8.22386 11.4422 8 11.166 8H7.16602V7Z" fill="#999999"/>
<path d="M7.16602 18C7.44216 18 7.66602 18.2239 7.66602 18.5V25C7.66602 25.5523 8.11373 26 8.66602 26C9.2183 26 9.66602 25.5523 9.66602 25V10.5C9.66602 10.2239 9.88987 10 10.166 10C10.4422 10 10.666 10.2239 10.666 10.5V25C10.666 26.1046 9.77058 27 8.66602 27C8.06867 27 7.53249 26.7381 7.16601 26.3229L7.16602 18Z" fill="#999999"/>
<path fill-rule="evenodd" clip-rule="evenodd" d="M7.16602 26.3183C6.79954 26.7336 6.26336 26.9954 5.66602 26.9954C4.56145 26.9954 3.66602 26.1 3.66602 24.9954V17.9954H2.94303C2.29363 17.9954 1.81649 17.3861 1.97219 16.7557L3.53286 10.4363C3.59686 10.1772 3.82685 9.99543 4.09072 9.99543C4.4648 9.99543 4.73929 10.3513 4.64856 10.7187L3.09842 16.9954H4.16602H4.66602V17.4954V17.9954V24.9954C4.66602 25.5477 5.11373 25.9954 5.66602 25.9954C6.2183 25.9954 6.66602 25.5477 6.66602 24.9954V18.4954C6.66602 18.2193 6.88987 17.9954 7.16602 17.9954V26.3183ZM7.16602 7.99543H3.07741L1.14474 15.558C1.07897 15.8154 0.84714 15.9954 0.581524 15.9954C0.202083 15.9954 -0.0756407 15.6378 0.0183086 15.2702L1.94069 7.74783C2.05382 7.30514 2.45263 6.99543 2.90955 6.99543H7.16602V7.99543ZM7.16602 5.99086C5.58682 5.90424 4.33298 4.59626 4.33298 2.99543C4.33298 1.3946 5.58682 0.0866282 7.16602 0V1.0023C6.13957 1.08714 5.33298 1.94709 5.33298 2.99543C5.33298 4.04378 6.13957 4.90373 7.16602 4.98856V5.99086Z" fill="#999999"/>
</svg>
