<svg width="15" height="27" viewBox="0 0 15 27" fill="none" xmlns="http://www.w3.org/2000/svg">
<path fill-rule="evenodd" clip-rule="evenodd" d="M7.33305 6C8.9899 6 10.333 4.65685 10.333 3C10.333 1.34315 8.9899 0 7.33305 0C5.67619 0 4.33305 1.34315 4.33305 3C4.33305 4.65685 5.67619 6 7.33305 6ZM7.33305 5C8.43762 5 9.33305 4.10457 9.33305 3C9.33305 1.89543 8.43762 1 7.33305 1C6.22848 1 5.33305 1.89543 5.33305 3C5.33305 4.10457 6.22848 5 7.33305 5ZM3.83305 18H3.11384C2.46327 18 1.98591 17.3886 2.14369 16.7575L3.72283 10.4409C3.78762 10.1818 4.02044 10 4.28754 10C4.66622 10 4.94408 10.3559 4.85224 10.7233L3.28306 17H4.83306V18H4.83305V24.5C4.83305 25.0523 5.28076 25.5 5.83305 25.5C6.38533 25.5 6.83305 25.0523 6.83305 24.5V18C6.83305 17.7239 7.0569 17.5 7.33305 17.5C7.60919 17.5 7.83305 17.7239 7.83305 18V24.5C7.83305 25.0523 8.28076 25.5 8.83305 25.5C9.38533 25.5 9.83305 25.0523 9.83305 24.5V18L9.83306 17.9961V17H11.4199L9.85073 10.7233C9.75889 10.3559 10.0368 10 10.4154 10C10.6825 10 10.9154 10.1818 10.9801 10.4409L12.5593 16.7575C12.7171 17.3886 12.2397 18 11.5891 18H10.833V24.5C10.833 25.6046 9.93762 26.5 8.83305 26.5C8.2357 26.5 7.69952 26.2381 7.33305 25.8229C6.96657 26.2381 6.43039 26.5 5.83305 26.5C4.72848 26.5 3.83305 25.6046 3.83305 24.5V18ZM2.90964 7C2.45272 7 2.05391 7.30971 1.94078 7.7524L0.0183973 15.2748C-0.0755518 15.6424 0.202172 16 0.581613 16C0.847229 16 1.07906 15.82 1.14483 15.5626L3.0775 8H11.5886L13.5213 15.5626C13.587 15.82 13.8189 16 14.0845 16C14.4639 16 14.7417 15.6424 14.6477 15.2748L12.7253 7.7524C12.6122 7.30971 12.2134 7 11.7565 7H2.90964Z" fill="#FF80BD"/>
</svg>
