<svg width="5" height="9" viewBox="0 0 5 9" fill="none" xmlns="http://www.w3.org/2000/svg">
<path d="M0.245493 7.96947C-0.0693603 7.6615 -0.0940685 7.23274 0.245493 6.85625L2.89068 4.09578L0.245492 1.33532C-0.0940688 0.958827 -0.0693606 0.529358 0.245492 0.223503C0.559639 -0.0844708 1.09051 -0.0646925 1.3856 0.223503C1.68069 0.510286 4.56378 3.53987 4.56378 3.53987C4.63851 3.61202 4.69794 3.69849 4.73853 3.79412C4.77913 3.88975 4.80005 3.99259 4.80005 4.09649C4.80005 4.20039 4.77913 4.30322 4.73853 4.39886C4.69794 4.49449 4.63851 4.58096 4.56378 4.6531C4.56378 4.6531 1.68069 7.68128 1.3856 7.96947C1.09051 8.25838 0.55964 8.27745 0.245493 7.96947Z" fill="#323C47"/>
</svg>
