<svg width="15" height="15" viewBox="0 0 15 15" fill="none" xmlns="http://www.w3.org/2000/svg">
<path d="M7.24 0C3.24791 0 0 3.24791 0 7.24C0 11.2321 3.24791 14.48 7.24 14.48C11.2321 14.48 14.48 11.2321 14.48 7.24C14.48 3.24791 11.2321 0 7.24 0ZM9.86137 9.07402C9.91526 9.12522 9.95835 9.18669 9.98812 9.25481C10.0179 9.32293 10.0337 9.39631 10.0347 9.47064C10.0356 9.54497 10.0217 9.61874 9.99366 9.6876C9.96565 9.75646 9.92414 9.81901 9.87158 9.87158C9.81901 9.92414 9.75646 9.96565 9.6876 9.99366C9.61874 10.0217 9.54497 10.0356 9.47064 10.0347C9.39631 10.0337 9.32293 10.0179 9.25481 9.98812C9.18669 9.95835 9.12522 9.91526 9.07402 9.86137L7.24 8.0277L5.40598 9.86137C5.30069 9.9614 5.16048 10.0163 5.01526 10.0145C4.87004 10.0126 4.73128 9.95411 4.62859 9.85141C4.52589 9.74872 4.46737 9.60996 4.46551 9.46474C4.46365 9.31952 4.5186 9.17931 4.61863 9.07402L6.4523 7.24L4.61863 5.40598C4.5186 5.30069 4.46365 5.16048 4.46551 5.01526C4.46737 4.87004 4.52589 4.73128 4.62859 4.62859C4.73128 4.52589 4.87004 4.46737 5.01526 4.46551C5.16048 4.46365 5.30069 4.5186 5.40598 4.61863L7.24 6.4523L9.07402 4.61863C9.17931 4.5186 9.31952 4.46365 9.46474 4.46551C9.60996 4.46737 9.74872 4.52589 9.85141 4.62859C9.95411 4.73128 10.0126 4.87004 10.0145 5.01526C10.0163 5.16048 9.9614 5.30069 9.86137 5.40598L8.0277 7.24L9.86137 9.07402Z" fill="#E76262"/>
</svg>
