<svg width="16"
            height="14" viewBox="0 0 16 14" fill="none" xmlns="http://www.w3.org/2000/svg">
<path fill-rule="evenodd" clip-rule="evenodd" d="M6 0C5.44772 0 5 0.447715 5 1V4C5 4.55228 5.44772 5 6 5H7V9H1C0.447715 9 0 9.44771 0 10V11C0 11.5523 0.447715 12 1 12H15C15.5523 12 16 11.5523 16 11V10C16 9.44772 15.5523 9 15 9H9V5H10C10.5523 5 11 4.55228 11 4V1C11 0.447715 10.5523 0 10 0H6ZM1 13.5C1 13.2239 1.22386 13 1.5 13H14.5C14.7761 13 15 13.2239 15 13.5C15 13.7761 14.7761 14 14.5 14H1.5C1.22386 14 1 13.7761 1 13.5Z" fill="#2055B5"/>
</svg>
