<svg width="12"
            height="13"  viewBox="0 0 12 13" fill="none" xmlns="http://www.w3.org/2000/svg">
<path fill-rule="evenodd" clip-rule="evenodd" d="M12 12.5543V11.9481C11.9999 11.8848 11.9877 11.8222 11.9641 11.7646C11.9405 11.7069 11.906 11.6555 11.8631 11.6137C11.4748 11.2306 11.1348 10.7913 10.8524 10.3077C10.544 9.64026 10.3592 8.91133 10.3087 8.16372V5.96177C10.3114 4.78752 9.92659 3.6526 9.22661 2.77026C8.52663 1.88792 7.55966 1.31888 6.50738 1.17007V0.595063C6.50738 0.437242 6.45074 0.285886 6.34993 0.17429C6.24911 0.062694 6.11237 0 5.9698 0C5.82722 0 5.69049 0.062694 5.58967 0.17429C5.48885 0.285886 5.43222 0.437242 5.43222 0.595063V1.17898C4.38937 1.33852 3.43408 1.911 2.7433 2.79038C2.05252 3.66976 1.67305 4.79645 1.67517 5.96177V8.16372C1.62473 8.91133 1.43991 9.64026 1.13154 10.3077C0.854047 10.7902 0.519542 11.2294 0.136913 11.6137C0.093959 11.6555 0.0595334 11.7069 0.0359265 11.7646C0.0123195 11.8222 7.24012e-05 11.8848 0 11.9481V12.5543C0 12.6725 0.0424256 12.7859 0.117944 12.8694C0.193462 12.953 0.295886 13 0.402685 13H11.5973C11.7041 13 11.8065 12.953 11.8821 12.8694C11.9576 12.7859 12 12.6725 12 12.5543Z" fill="#2055B5"/>
</svg>
