<svg width="16" height="16" viewBox="0 0 16 16" fill="none" xmlns="http://www.w3.org/2000/svg">
<path d="M7.99981 0.761719C4.00271 0.761719 0.761719 4.00271 0.761719 7.99981C0.761719 11.9969 4.00271 15.2379 7.99981 15.2379C11.9969 15.2379 15.2379 11.9969 15.2379 7.99981C15.2379 4.00271 11.9969 0.761719 7.99981 0.761719ZM11.1261 5.63612L7.72354 10.3538C7.67598 10.4202 7.61329 10.4743 7.54066 10.5116C7.46803 10.5489 7.38755 10.5684 7.30589 10.5684C7.22424 10.5684 7.14376 10.5489 7.07113 10.5116C6.9985 10.4743 6.93581 10.4202 6.88825 10.3538L4.87354 7.56197C4.81214 7.47635 4.87354 7.35679 4.97856 7.35679H5.73629C5.90109 7.35679 6.05781 7.43595 6.15475 7.57167L7.30509 9.16793L9.84488 5.64582C9.94182 5.51172 10.0969 5.43094 10.2633 5.43094H11.0211C11.1261 5.43094 11.1875 5.5505 11.1261 5.63612Z" fill="#80C483"/>
</svg>
