<svg width="15" height="14" viewBox="0 0 15 14" fill="none" xmlns="http://www.w3.org/2000/svg">
<g clip-path="url(#clip0)">
<path d="M5.9856 0H8.1731C8.53677 0 8.82935 0.292578 8.82935 0.65625V5.25H11.2274C11.7141 5.25 11.9575 5.83789 11.6129 6.18242L7.45396 10.3441C7.24888 10.5492 6.91255 10.5492 6.70747 10.3441L2.54302 6.18242C2.19849 5.83789 2.44185 5.25 2.92856 5.25H5.32935V0.65625C5.32935 0.292578 5.62192 0 5.9856 0ZM14.0793 10.2812V13.3438C14.0793 13.7074 13.7868 14 13.4231 14H0.735596C0.371924 14 0.0793457 13.7074 0.0793457 13.3438V10.2812C0.0793457 9.91758 0.371924 9.625 0.735596 9.625H4.74692L6.08677 10.9648C6.63638 11.5145 7.52231 11.5145 8.07192 10.9648L9.41177 9.625H13.4231C13.7868 9.625 14.0793 9.91758 14.0793 10.2812ZM10.6887 12.6875C10.6887 12.3867 10.4426 12.1406 10.1418 12.1406C9.84106 12.1406 9.59497 12.3867 9.59497 12.6875C9.59497 12.9883 9.84106 13.2344 10.1418 13.2344C10.4426 13.2344 10.6887 12.9883 10.6887 12.6875ZM12.4387 12.6875C12.4387 12.3867 12.1926 12.1406 11.8918 12.1406C11.5911 12.1406 11.345 12.3867 11.345 12.6875C11.345 12.9883 11.5911 13.2344 11.8918 13.2344C12.1926 13.2344 12.4387 12.9883 12.4387 12.6875Z" fill="#E5E5E5"/>
</g>
<defs>
<clipPath id="clip0">
<rect width="14" height="14" fill="white" transform="translate(0.0793457)"/>
</clipPath>
</defs>
</svg>
