<svg width="13" height="12" viewBox="0 0 13 12" fill="none" xmlns="http://www.w3.org/2000/svg">
<path d="M12.5241 10.3128C12.93 11.0627 12.4205 12 11.6098 12H1.05675C0.244477 12 -0.262673 11.0612 0.14244 10.3128L5.41903 0.562149C5.82513 -0.188062 6.84227 -0.186703 7.24765 0.562149L12.5241 10.3128ZM6.33334 8.29688C5.77467 8.29688 5.32177 8.77957 5.32177 9.375C5.32177 9.97043 5.77467 10.4531 6.33334 10.4531C6.89202 10.4531 7.34491 9.97043 7.34491 9.375C7.34491 8.77957 6.89202 8.29688 6.33334 8.29688ZM5.37294 4.42158L5.53607 7.60908C5.5437 7.75823 5.65941 7.875 5.79956 7.875H6.86712C7.00727 7.875 7.12298 7.75823 7.13061 7.60908L7.29374 4.42158C7.30199 4.26047 7.18163 4.125 7.03025 4.125H5.63641C5.48503 4.125 5.36469 4.26047 5.37294 4.42158Z" fill="#F65A1C"/>
</svg>
