<svg width="12" height="12" viewBox="0 0 12 12" fill="none" xmlns="http://www.w3.org/2000/svg">
<path d="M4.125 5.06257H7.875C8.08219 5.06257 8.25 4.89476 8.25 4.68757V4.31257C8.25 4.10538 8.08219 3.93757 7.875 3.93757H4.125C3.91781 3.93757 3.75 4.10538 3.75 4.31257V4.68757C3.75 4.89476 3.91781 5.06257 4.125 5.06257ZM3.75 6.93757C3.75 7.14476 3.91781 7.31257 4.125 7.31257H7.875C8.08219 7.31257 8.25 7.14476 8.25 6.93757V6.56257C8.25 6.35538 8.08219 6.18757 7.875 6.18757H4.125C3.91781 6.18757 3.75 6.35538 3.75 6.56257V6.93757ZM6 9.77656C5.61516 9.77656 5.23031 9.65796 4.90172 9.42054L0 5.8796V10.8751C0 11.4964 0.503672 12.0001 1.125 12.0001H10.875C11.4963 12.0001 12 11.4964 12 10.8751V5.8796L7.09828 9.42054C6.76969 9.65773 6.38484 9.77656 6 9.77656ZM11.569 3.81921C11.3616 3.65656 11.1649 3.50351 10.875 3.2846V2.25007C10.875 1.62874 10.3713 1.12507 9.75 1.12507H7.93242C7.86117 1.07351 7.79484 1.02523 7.72055 0.971322C7.32656 0.683744 6.54375 -0.00813081 6 7.23134e-05C5.45625 -0.00813081 4.67367 0.683744 4.27945 0.971322C4.20516 1.02523 4.13883 1.07351 4.06758 1.12507H2.25C1.62867 1.12507 1.125 1.62874 1.125 2.25007V3.2846C0.835078 3.50328 0.638438 3.65656 0.431016 3.81921C0.296756 3.92443 0.188183 4.0588 0.113511 4.21217C0.0388389 4.36553 2.31048e-05 4.53387 0 4.70445L0 4.95406L2.25 6.57945V2.25007H9.75V6.57945L12 4.95406V4.70445C12 4.35898 11.8411 4.03249 11.569 3.81921Z" fill="#666666"/>
</svg>
