<svg width="8" height="10" viewBox="0 0 8 10" fill="none" xmlns="http://www.w3.org/2000/svg">
<path d="M6.89976 4H5.99976V2.8C5.99976 1.3515 5.33226 0.5 3.99976 0.5C2.66676 0.5 1.99976 1.3515 1.99976 2.8V4H0.999756C0.723256 4 0.499756 4.323 0.499756 4.5995V8.5C0.499756 8.7745 0.713756 9.0695 0.975256 9.1535L1.57376 9.347C1.89121 9.43953 2.21922 9.49095 2.54976 9.5H5.44976C5.78017 9.49103 6.10805 9.43944 6.42526 9.3465L7.02326 9.153C7.28526 9.0695 7.49976 8.7745 7.49976 8.5V4.5995C7.49976 4.323 7.17576 4 6.89976 4ZM4.99976 4H2.99976V2.5995C2.99976 1.877 3.39826 1.5 3.99976 1.5C4.60126 1.5 4.99976 1.877 4.99976 2.5995V4Z" fill="#707683"/>
</svg>
