<svg width="12" height="10" viewBox="0 0 12 10" fill="none" xmlns="http://www.w3.org/2000/svg">
<path d="M11.7727 3.47188C11.8641 3.39922 12 3.46719 12 3.58203V8.375C12 8.99609 11.4961 9.5 10.875 9.5H1.125C0.503906 9.5 0 8.99609 0 8.375V3.58438C0 3.46719 0.133594 3.40156 0.227344 3.47422C0.752344 3.88203 1.44844 4.4 3.83906 6.13672C4.33359 6.49766 5.16797 7.25703 6 7.25234C6.83672 7.25938 7.6875 6.48359 8.16328 6.13672C10.5539 4.4 11.2477 3.87969 11.7727 3.47188ZM6 6.5C6.54375 6.50938 7.32656 5.81563 7.72031 5.52969C10.8305 3.27266 11.0672 3.07578 11.7844 2.51328C11.9203 2.40781 12 2.24375 12 2.07031V1.625C12 1.00391 11.4961 0.5 10.875 0.5H1.125C0.503906 0.5 0 1.00391 0 1.625V2.07031C0 2.24375 0.0796875 2.40547 0.215625 2.51328C0.932813 3.07344 1.16953 3.27266 4.27969 5.52969C4.67344 5.81563 5.45625 6.50938 6 6.5Z" fill="#666666"/>
</svg>
