<svg width="35" height="36" viewBox="0 0 35 36" fill="none" xmlns="http://www.w3.org/2000/svg">
<rect x="-1.00195" y="18.001" width="26.1633" height="26.1633" rx="3" transform="rotate(-45 -1.00195 18.001)" fill="#C73D90"/>
<path d="M12.442 19.1689C12.442 18.8564 12.3313 18.6156 12.11 18.4463C11.8919 18.277 11.4964 18.1061 10.9234 17.9336C10.3505 17.7611 9.89479 17.569 9.55625 17.3574C8.90846 16.9505 8.58457 16.4199 8.58457 15.7656C8.58457 15.1927 8.81732 14.7207 9.28281 14.3496C9.75156 13.9785 10.3587 13.793 11.1041 13.793C11.5989 13.793 12.04 13.8841 12.4273 14.0664C12.8147 14.2487 13.1191 14.5091 13.3404 14.8477C13.5618 15.1829 13.6725 15.5557 13.6725 15.9658H12.442C12.442 15.5947 12.3248 15.305 12.0904 15.0967C11.8593 14.8851 11.5273 14.7793 11.0943 14.7793C10.6907 14.7793 10.3766 14.8656 10.152 15.0381C9.9306 15.2106 9.81992 15.4515 9.81992 15.7607C9.81992 16.0212 9.94036 16.2393 10.1812 16.415C10.4221 16.5876 10.8193 16.7568 11.3727 16.9229C11.926 17.0856 12.3704 17.2728 12.7057 17.4844C13.041 17.6927 13.2867 17.9336 13.443 18.207C13.5992 18.4772 13.6773 18.7946 13.6773 19.1592C13.6773 19.7516 13.4495 20.2236 12.9937 20.5752C12.5413 20.9235 11.926 21.0977 11.148 21.0977C10.6337 21.0977 10.1601 21.0033 9.72715 20.8145C9.29746 20.6224 8.96217 20.3587 8.72129 20.0234C8.48366 19.6882 8.36484 19.2975 8.36484 18.8516H9.60019C9.60019 19.2552 9.73366 19.5677 10.0006 19.7891C10.2675 20.0104 10.65 20.1211 11.148 20.1211C11.5777 20.1211 11.9 20.0348 12.1148 19.8623C12.3329 19.6865 12.442 19.4554 12.442 19.1689ZM19.998 14.8867H17.7812V21H16.5557V14.8867H14.3584V13.8906H19.998V14.8867ZM25.6254 21H20.8451V20.1846L23.2133 17.6016C23.5551 17.2207 23.7976 16.9033 23.9408 16.6494C24.0873 16.3923 24.1605 16.1351 24.1605 15.8779C24.1605 15.5394 24.0645 15.266 23.8725 15.0576C23.6837 14.8493 23.4281 14.7451 23.1059 14.7451C22.7217 14.7451 22.4239 14.8623 22.2123 15.0967C22.0007 15.3311 21.8949 15.6517 21.8949 16.0586H20.7084C20.7084 15.6257 20.8061 15.2367 21.0014 14.8916C21.1999 14.5433 21.4815 14.2731 21.8461 14.0811C22.2139 13.889 22.6371 13.793 23.1156 13.793C23.8057 13.793 24.3493 13.9671 24.7465 14.3154C25.1469 14.6605 25.3471 15.139 25.3471 15.751C25.3471 16.1058 25.2462 16.4785 25.0443 16.8691C24.8458 17.2565 24.5186 17.6976 24.0629 18.1924L22.3246 20.0527H25.6254V21Z" fill="white"/>
</svg>
