<svg width="29" height="29" viewBox="0 0 29 29" fill="none" xmlns="http://www.w3.org/2000/svg">
<rect width="28" height="28" rx="3" fill="#209890"/>
<path d="M13.9305 10.8867H11.7137V17H10.4881V10.8867H8.29082V9.89062H13.9305V10.8867ZM19.4113 14.0068C19.4113 15.029 19.2193 15.8005 18.8352 16.3213C18.4543 16.8389 17.8732 17.0977 17.092 17.0977C16.3238 17.0977 15.7443 16.8454 15.3537 16.3408C14.9663 15.833 14.7678 15.0827 14.758 14.0898V12.8594C14.758 11.8372 14.9484 11.0706 15.3293 10.5596C15.7134 10.0485 16.2977 9.79297 17.0822 9.79297C17.8602 9.79297 18.4396 10.042 18.8205 10.54C19.2046 11.0381 19.4016 11.7835 19.4113 12.7764V14.0068ZM18.2248 12.6787C18.2248 12.0114 18.1337 11.5231 17.9514 11.2139C17.7691 10.9014 17.4794 10.7451 17.0822 10.7451C16.6949 10.7451 16.41 10.8932 16.2277 11.1895C16.0454 11.4824 15.9494 11.9414 15.9396 12.5664V14.1777C15.9396 14.8418 16.0324 15.3366 16.218 15.6621C16.4035 15.9876 16.6949 16.1504 17.092 16.1504C17.4729 16.1504 17.7544 16.0007 17.9367 15.7012C18.119 15.3984 18.215 14.9264 18.2248 14.2852V12.6787Z" fill="white"/>
</svg>
