<svg width="29" height="29" viewBox="0 0 29 29" fill="none" xmlns="http://www.w3.org/2000/svg">
<rect width="29" height="29" rx="14.5" fill="#3EB7B0"/>
<path d="M7.42246 14.3584V17H6.18711V9.89062H8.90684C9.70111 9.89062 10.331 10.0973 10.7965 10.5107C11.2652 10.9242 11.4996 11.471 11.4996 12.1514C11.4996 12.848 11.2701 13.39 10.8111 13.7773C10.3554 14.1647 9.71575 14.3584 8.89219 14.3584H7.42246ZM7.42246 13.3672H8.90684C9.34629 13.3672 9.68158 13.2646 9.91269 13.0596C10.1438 12.8512 10.2594 12.5518 10.2594 12.1611C10.2594 11.777 10.1422 11.471 9.90781 11.2432C9.67344 11.012 9.35117 10.8932 8.94102 10.8867H7.42246V13.3672ZM15.7939 15.3447H13.04L12.4639 17H11.1797L13.8652 9.89062H14.9736L17.6641 17H16.375L15.7939 15.3447ZM13.3867 14.3486H15.4473L14.417 11.3994L13.3867 14.3486ZM21.5971 17H20.4154V11.292L18.6723 11.8877V10.8867L21.4457 9.86621H21.5971V17Z" fill="white"/>
</svg>
