<svg width="31" height="31" viewBox="0 0 31 31" fill="none" xmlns="http://www.w3.org/2000/svg">
<path d="M14.7427 0.878206C15.1416 0.415614 15.8584 0.415614 16.2573 0.878206L21.9503 7.48006C22.0456 7.59052 22.1639 7.67881 22.2969 7.73873L30.1907 11.2954C30.7281 11.5375 30.9405 12.1894 30.6491 12.7016L26.2768 20.386C26.207 20.5088 26.1639 20.6449 26.1505 20.7855L25.3065 29.6224C25.2492 30.2223 24.6782 30.6356 24.0904 30.5027L15.7206 28.6099C15.5754 28.577 15.4246 28.577 15.2794 28.6099L6.90958 30.5027C6.32179 30.6356 5.75083 30.2223 5.69353 29.6224L4.84951 20.7855C4.83609 20.6449 4.79304 20.5088 4.7232 20.386L0.350911 12.7016C0.0594538 12.1894 0.271947 11.5375 0.80928 11.2954L8.70315 7.73873C8.83614 7.67881 8.95441 7.59052 9.04967 7.48006L14.7427 0.878206Z" fill="#A6D268"/>
</svg>
