<svg width="12.78"
            height="12.21" viewBox="0 0 13 13" fill="none" xmlns="http://www.w3.org/2000/svg">
<path d="M11.2224 0.222656H1.778C1.33597 0.222656 0.912044 0.398251 0.599483 0.710812C0.286923 1.02337 0.111328 1.4473 0.111328 1.88932V8.55599C0.111328 8.99802 0.286923 9.42194 0.599483 9.7345C0.912044 10.0471 1.33597 10.2227 1.778 10.2227H9.30577L11.9613 12.2838C12.0403 12.3421 12.1333 12.3785 12.2309 12.3893C12.3285 12.4 12.4271 12.3847 12.5169 12.3449C12.6114 12.2999 12.6913 12.229 12.7473 12.1406C12.8034 12.0521 12.8333 11.9496 12.8336 11.8449V1.88932C12.8338 1.45675 12.6658 1.04104 12.3652 0.730027C12.0646 0.419015 11.6548 0.237075 11.2224 0.222656Z" fill="#2055B5"/>
</svg>
