<svg width="12.72"
            height="12.17" viewBox="0 0 13 13" fill="none" xmlns="http://www.w3.org/2000/svg">
<path d="M3.44466 4.55577V0.111328H1.778C1.33597 0.111328 0.912044 0.286923 0.599484 0.599483C0.286923 0.912044 0.111328 1.33597 0.111328 1.77799V11.778C0.112155 11.8812 0.141699 11.9821 0.196648 12.0694C0.251598 12.1567 0.329782 12.227 0.422439 12.2724C0.511705 12.313 0.610126 12.3293 0.707703 12.3195C0.80528 12.3098 0.898535 12.2744 0.977995 12.2169L3.83911 10.1113H11.3058C11.5163 10.1176 11.7259 10.0805 11.9216 10.0024C12.1172 9.92434 12.2948 9.80693 12.4432 9.65746C12.5916 9.50799 12.7078 9.32963 12.7845 9.13344C12.8612 8.93725 12.8968 8.7274 12.8891 8.51688V7.88911H6.778C5.89394 7.88911 5.04609 7.53792 4.42097 6.9128C3.79585 6.28767 3.44466 5.43983 3.44466 4.55577Z" fill="#2055B5"/>
</svg>
