<svg width="18" height="14" viewBox="0 0 18 14" fill="none" xmlns="http://www.w3.org/2000/svg">
<path d="M16.5 0H1.5C0.671875 0 0 0.671875 0 1.5V12.5C0 13.3281 0.671875 14 1.5 14H16.5C17.3281 14 18 13.3281 18 12.5V1.5C18 0.671875 17.3281 0 16.5 0ZM5.5 3C6.60313 3 7.5 3.89687 7.5 5C7.5 6.10313 6.60313 7 5.5 7C4.39687 7 3.5 6.10313 3.5 5C3.5 3.89687 4.39687 3 5.5 3ZM9 10.4C9 10.7312 8.6875 11 8.3 11H2.7C2.3125 11 2 10.7312 2 10.4V9.8C2 8.80625 2.94062 8 4.1 8H4.25625C4.64062 8.15938 5.05937 8.25 5.5 8.25C5.94063 8.25 6.3625 8.15938 6.74375 8H6.9C8.05937 8 9 8.80625 9 9.8V10.4ZM16 8.75C16 8.8875 15.8875 9 15.75 9H11.25C11.1125 9 11 8.8875 11 8.75V8.25C11 8.1125 11.1125 8 11.25 8H15.75C15.8875 8 16 8.1125 16 8.25V8.75ZM16 6.75C16 6.8875 15.8875 7 15.75 7H11.25C11.1125 7 11 6.8875 11 6.75V6.25C11 6.1125 11.1125 6 11.25 6H15.75C15.8875 6 16 6.1125 16 6.25V6.75ZM16 4.75C16 4.8875 15.8875 5 15.75 5H11.25C11.1125 5 11 4.8875 11 4.75V4.25C11 4.1125 11.1125 4 11.25 4H15.75C15.8875 4 16 4.1125 16 4.25V4.75Z" fill="#2055B5"/>
</svg>
