<svg width="17" height="17" viewBox="0 0 17 17" fill="none" xmlns="http://www.w3.org/2000/svg">
<g clip-path="url(#clip0)">
<path d="M16.295 8.5C16.295 12.7812 12.8249 16.25 8.54498 16.25C4.26508 16.25 0.794983 12.7812 0.794983 8.5C0.794983 4.22134 4.26508 0.75 8.54498 0.75C12.8249 0.75 16.295 4.22134 16.295 8.5ZM8.75295 3.3125C7.04992 3.3125 5.96373 4.02991 5.1108 5.30494C5.0003 5.47012 5.03726 5.69291 5.19564 5.813L6.27998 6.63519C6.44264 6.75853 6.67439 6.72919 6.80076 6.56887C7.35901 5.86081 7.7418 5.45022 8.59148 5.45022C9.22989 5.45022 10.0195 5.86109 10.0195 6.48016C10.0195 6.94816 9.6332 7.1885 9.00286 7.54191C8.26773 7.954 7.29498 8.46691 7.29498 9.75V9.875C7.29498 10.0821 7.46289 10.25 7.66998 10.25H9.41998C9.62708 10.25 9.79498 10.0821 9.79498 9.875V9.83334C9.79498 8.94391 12.3945 8.90687 12.3945 6.5C12.3945 4.68744 10.5144 3.3125 8.75295 3.3125ZM8.54498 11.0625C7.75233 11.0625 7.10748 11.7073 7.10748 12.5C7.10748 13.2926 7.75233 13.9375 8.54498 13.9375C9.33764 13.9375 9.98248 13.2926 9.98248 12.5C9.98248 11.7073 9.33764 11.0625 8.54498 11.0625Z" fill="white"/>
</g>
<defs>
<clipPath id="clip0">
<rect width="16" height="16" fill="white" transform="translate(0.544983 0.5)"/>
</clipPath>
</defs>
</svg>
