<svg width="16" height="19" viewBox="0 0 16 19" fill="none" xmlns="http://www.w3.org/2000/svg">
<path fill-rule="evenodd" clip-rule="evenodd" d="M12.9617 18.0543V17.4481C12.9616 17.3848 12.9494 17.3222 12.9257 17.2646C12.9021 17.2069 12.8677 17.1555 12.8248 17.1137C12.4364 16.7306 12.0965 16.2913 11.814 15.8077C11.5057 15.1403 11.3208 14.4113 11.2704 13.6637V11.4618C11.2731 10.2875 10.8883 9.1526 10.1883 8.27026C9.4883 7.38792 8.52133 6.81888 7.46905 6.67007V6.09506C7.46905 5.93724 7.41241 5.78589 7.3116 5.67429C7.21078 5.56269 7.07404 5.5 6.93147 5.5C6.78889 5.5 6.65216 5.56269 6.55134 5.67429C6.45052 5.78589 6.39389 5.93724 6.39389 6.09506V6.67898C5.35104 6.83852 4.39575 7.411 3.70497 8.29038C3.01419 9.16976 2.63472 10.2964 2.63684 11.4618V13.6637C2.5864 14.4113 2.40158 15.1403 2.09321 15.8077C1.81572 16.2902 1.48121 16.7294 1.09858 17.1137C1.05563 17.1555 1.0212 17.2069 0.997596 17.2646C0.973989 17.3222 0.961742 17.3848 0.96167 17.4481V18.0543C0.96167 18.1725 1.0041 18.2859 1.07961 18.3694C1.15513 18.453 1.25756 18.5 1.36435 18.5H12.559C12.6658 18.5 12.7682 18.453 12.8437 18.3694C12.9192 18.2859 12.9617 18.1725 12.9617 18.0543Z" fill="white"/>
<circle cx="12.9617" cy="3.5" r="3" fill="#E76262"/>
</svg>
