<svg width="18" height="17" viewBox="0 0 18 17" fill="none" xmlns="http://www.w3.org/2000/svg">
<path d="M17.5414 14.333L14.1859 11.2177C14.0344 11.0771 13.8291 10.999 13.6137 10.999H13.0651C13.994 9.89596 14.546 8.50859 14.546 6.99937C14.546 3.40909 11.4126 0.5 7.5455 0.5C3.67839 0.5 0.544983 3.40909 0.544983 6.99937C0.544983 10.5896 3.67839 13.4987 7.5455 13.4987C9.17109 13.4987 10.6654 12.9863 11.8535 12.1239V12.6332C11.8535 12.8332 11.9376 13.0238 12.0891 13.1644L15.4446 16.2797C15.761 16.5734 16.2726 16.5734 16.5856 16.2797L17.5381 15.3954C17.8544 15.1017 17.8544 14.6267 17.5414 14.333ZM7.5455 10.999C5.16599 10.999 3.23749 9.21165 3.23749 6.99937C3.23749 4.79021 5.16263 2.99976 7.5455 2.99976C9.925 2.99976 11.8535 4.78708 11.8535 6.99937C11.8535 9.20852 9.92836 10.999 7.5455 10.999Z" fill="white"/>
</svg>
