<svg width="17" height="15" viewBox="0 0 17 15" fill="none" xmlns="http://www.w3.org/2000/svg">
<path fill-rule="evenodd" clip-rule="evenodd" d="M6.58898 0.0625C9.69753 0.0625 12.2163 2.43984 12.2163 5.375C12.2163 8.31016 9.69753 10.6875 6.58898 10.6875C5.47975 10.6875 4.44898 10.3787 3.57783 9.85742C2.98804 10.2791 2.1683 10.6875 1.17811 10.6875C1.09153 10.6875 1.01578 10.6277 0.980608 10.5281C0.945437 10.4285 0.96167 10.3156 1.02119 10.2393C1.02931 10.2293 1.62721 9.43242 1.98974 8.42969C1.34314 7.56309 0.96167 6.51387 0.96167 5.375C0.96167 2.43984 3.48043 0.0625 6.58898 0.0625ZM16.545 9.625C16.545 10.7639 16.1635 11.8164 15.5169 12.6797C15.8795 13.6857 16.4774 14.4793 16.4855 14.4893C16.545 14.5689 16.5612 14.6818 16.5261 14.7781C16.4936 14.8744 16.4151 14.9375 16.3286 14.9375C15.3384 14.9375 14.5186 14.5291 13.9288 14.1074C13.0577 14.632 12.0269 14.9375 10.9177 14.9375C8.5856 14.9375 6.58357 13.5961 5.73136 11.6869C6.01272 11.7234 6.2968 11.75 6.58898 11.75C10.1683 11.75 13.082 8.89121 13.082 5.375C13.082 5.14922 13.0712 4.92676 13.0469 4.70762C15.0976 5.50117 16.545 7.40371 16.545 9.625ZM4.31222 3.06671C4.78787 2.38324 5.39372 2 6.32909 2C7.32379 2 8.38554 2.77644 8.38552 3.8C8.38552 4.6453 7.81771 4.97298 7.38837 5.22075C7.12737 5.37137 6.91754 5.49246 6.91754 5.68235V5.75C6.91754 5.90533 6.79162 6.03125 6.63629 6.03125H5.78702C5.63169 6.03125 5.50577 5.90533 5.50577 5.75V5.6353C5.50577 4.92808 6.02912 4.63521 6.44019 4.40518C6.45027 4.39954 6.46028 4.39393 6.47021 4.38836C6.82618 4.18879 7.04435 4.05307 7.04435 3.78879C7.04435 3.43919 6.59843 3.20717 6.23791 3.20717C5.77939 3.20717 5.56165 3.41891 5.2681 3.78665C5.17294 3.90588 4.99998 3.92743 4.87842 3.83526L4.3729 3.45195C4.25253 3.36069 4.22593 3.1907 4.31222 3.06671ZM5.39989 7.18824C5.39989 6.74063 5.76405 6.37647 6.21166 6.37647C6.65927 6.37647 7.02343 6.74062 7.02343 7.18823C7.02343 7.63584 6.65927 8 6.21166 8C5.76405 8 5.39989 7.63584 5.39989 7.18824Z" fill="white"/>
</svg>
