<svg width="18" height="20" viewBox="0 0 18 20" fill="none" xmlns="http://www.w3.org/2000/svg">
<path fill-rule="evenodd" clip-rule="evenodd" d="M13.7898 19.0585V18.4057C13.7897 18.3376 13.7765 18.2702 13.7511 18.2081C13.7257 18.146 13.6886 18.0907 13.6423 18.0457C13.2242 17.633 12.858 17.16 12.5538 16.6392C12.2218 15.9204 12.0227 15.1354 11.9684 14.3303V11.9589C11.9713 10.6944 11.5569 9.47215 10.803 8.52193C10.0492 7.57172 9.00787 6.95891 7.87465 6.79865V6.17941C7.87465 6.00945 7.81365 5.84645 7.70508 5.72627C7.59651 5.60609 7.44926 5.53857 7.29571 5.53857C7.14217 5.53857 6.99492 5.60609 6.88634 5.72627C6.77777 5.84645 6.71678 6.00945 6.71678 6.17941V6.80825C5.59371 6.98006 4.56494 7.59657 3.82102 8.5436C3.0771 9.49062 2.66844 10.704 2.67073 11.9589V14.3303C2.61641 15.1354 2.41737 15.9204 2.08528 16.6392C1.78644 17.1588 1.42621 17.6318 1.01414 18.0457C0.967886 18.0907 0.930812 18.146 0.905389 18.2081C0.879966 18.2702 0.866777 18.3376 0.866699 18.4057V19.0585C0.866699 19.1859 0.912388 19.308 0.993715 19.398C1.07504 19.488 1.18535 19.5386 1.30036 19.5386H13.3561C13.4711 19.5386 13.5814 19.488 13.6628 19.398C13.7441 19.308 13.7898 19.1859 13.7898 19.0585Z" fill="#5801FF"/>
<ellipse cx="13.7897" cy="3.38458" rx="3.23077" ry="3.23077" fill="#E76262"/>
</svg>
