 <svg               width="18"
                height="18"
                viewBox="0 0 18 18"
                fill="none"
                xmlns="http://www.w3.org/2000/svg"
              >
                <path
                  fill-rule="evenodd"
                  clip-rule="evenodd"
                  d="M15.0312 15.0319C18.3507 11.7125 18.3507 6.33056 15.0312 3.01108C11.7117 -0.308406 6.32985 -0.308363 3.01041 3.01108C-0.309032 6.33052 -0.309075 11.7124 3.01041 15.0319C6.32989 18.3514 11.7118 18.3513 15.0312 15.0319ZM14.3241 14.3248C17.2531 11.3958 17.253 6.64708 14.3241 3.71818C11.3952 0.789284 6.64646 0.789241 3.71751 3.71818C0.788571 6.64713 0.788615 11.3959 3.71751 14.3248C6.64641 17.2537 11.3952 17.2537 14.3241 14.3248Z"
                  fill="#707683"
                />
                <path
                  d="M4.52082 9.02148C4.52082 9.29762 4.74468 9.52148 5.02082 9.52148H8.52082V13.0215C8.52082 13.2976 8.74468 13.5215 9.02082 13.5215C9.29696 13.5215 9.52082 13.2976 9.52082 13.0215V9.52148L13.0208 9.52148C13.297 9.52148 13.5208 9.29762 13.5208 9.02148C13.5208 8.74534 13.297 8.52148 13.0208 8.52148H9.52082L9.52082 5.02148C9.52082 4.74534 9.29696 4.52148 9.02082 4.52148C8.74468 4.52148 8.52082 4.74534 8.52082 5.02148V8.52148H5.02082C4.74468 8.52148 4.52082 8.74534 4.52082 9.02148Z"
                  fill="#707683"
                />
              </svg>