<svg width="16" height="14" viewBox="0 0 16 14" fill="none" xmlns="http://www.w3.org/2000/svg">
<path fill-rule="evenodd" clip-rule="evenodd" d="M5.70914 0C8.63483 0 11.0054 2.2375 11.0054 5C11.0054 7.7625 8.63483 10 5.70914 10C4.66516 10 3.69502 9.70938 2.87511 9.21875C2.32002 9.61563 1.54849 10 0.616545 10C0.535064 10 0.463768 9.94375 0.430666 9.85C0.397564 9.75625 0.412842 9.65 0.46886 9.57812C0.476499 9.56875 1.03923 8.81875 1.38043 7.875C0.77187 7.05937 0.412842 6.07188 0.412842 5C0.412842 2.2375 2.78344 0 5.70914 0ZM15.0795 9C15.0795 10.0719 14.7205 11.0625 14.1119 11.875C14.4531 12.8219 15.0158 13.5688 15.0235 13.5781C15.0795 13.6531 15.0948 13.7594 15.0617 13.85C15.0311 13.9406 14.9573 14 14.8758 14C13.9439 14 13.1723 13.6156 12.6172 13.2188C11.7973 13.7125 10.8272 14 9.78321 14C7.5883 14 5.70404 12.7375 4.90196 10.9406C5.16678 10.975 5.43414 11 5.70914 11C9.07789 11 11.8202 8.30937 11.8202 5C11.8202 4.7875 11.8101 4.57812 11.7871 4.37187C13.7172 5.11875 15.0795 6.90938 15.0795 9ZM3.76339 3.06671C4.23904 2.38324 4.84489 2 5.78027 2C6.77497 2 7.83671 2.77644 7.8367 3.8C7.8367 4.6453 7.26888 4.97298 6.83954 5.22075C6.57854 5.37137 6.36871 5.49246 6.36871 5.68235V5.75C6.36871 5.90533 6.24279 6.03125 6.08746 6.03125H5.23819C5.08286 6.03125 4.95694 5.90533 4.95694 5.75V5.6353C4.95694 4.92808 5.48029 4.63521 5.89136 4.40518C5.90144 4.39954 5.91145 4.39393 5.92138 4.38836C6.27735 4.18879 6.49552 4.05307 6.49552 3.78879C6.49552 3.43919 6.0496 3.20717 5.68908 3.20717C5.23056 3.20717 5.01282 3.41891 4.71927 3.78665C4.62411 3.90588 4.45115 3.92743 4.32959 3.83526L3.82407 3.45195C3.7037 3.36069 3.6771 3.1907 3.76339 3.06671ZM4.85106 7.18824C4.85106 6.74063 5.21522 6.37647 5.66283 6.37647C6.11044 6.37647 6.4746 6.74062 6.4746 7.18823C6.4746 7.63584 6.11044 8 5.66283 8C5.21522 8 4.85106 7.63584 4.85106 7.18824Z" fill="#5801FF"/>
</svg>
