<?xml version="1.0" encoding="utf-8"?>
<!-- Generator: Adobe Illustrator 24.1.0, SVG Export Plug-In . SVG Version: 6.00 Build 0)  -->
<svg version="1.1" id="Layer_1" xmlns="http://www.w3.org/2000/svg" xmlns:xlink="http://www.w3.org/1999/xlink" x="0px" y="0px"
	 viewBox="0 0 800 372.9" style="enable-background:new 0 0 800 372.9;" xml:space="preserve">
<style type="text/css">
	.st0{fill:#44B778;}
	.st1{fill:#1D4798;}
	.st2{fill:#8D4198;}
	.st3{fill:#00538B;}
</style>
<g id="Layer_53">
</g>
<g id="Layer_52">
	<g>
		<g>
			<path class="st0" d="M171.6,182H199c8.7,0,15.8-7.1,15.8-15.8v-63.7c0-8.7-7.1-15.8-15.8-15.8h-63.7c-8.7,0-15.8,7.1-15.8,15.8
				v27.2h52V182z"/>
			<path class="st1" d="M119.6,246v27.2c0,8.7,7.1,15.8,15.8,15.8H199c8.7,0,15.8-7.1,15.8-15.8v-63.7c0-8.7-7.1-15.8-15.8-15.8
				h-27.5V246H119.6z"/>
			<path class="st0" d="M95,169.1l-39.2-39.4h52v-27.2c0-8.7-7.1-15.8-15.8-15.8H28.4c-8.7,0-15.8,7.1-15.8,15.8v63.7
				c0,8.7,7.1,15.8,15.8,15.8h46.8H92h15.9L95,169.1z"/>
			<path class="st1" d="M94.6,207L94.6,207l13.3-13.4H92H75.2H28.4c-8.7,0-15.8,7.1-15.8,15.8v63.7c0,8.7,7.1,15.8,15.8,15.8H92
				c8.7,0,15.8-7.1,15.8-15.8V246h-52L94.6,207z"/>
			<path class="st1" d="M324.9,115.1c0-2.9-0.3-5.3-0.8-7.1c-0.6-1.8-1.5-3.2-2.7-4.2c-1.2-1-2.9-1.7-5-2.1
				c-2.1-0.3-4.7-0.5-7.8-0.5h-18.1V130h18.1c3.1,0,5.7-0.2,7.8-0.6c2.1-0.4,3.8-1.1,5-2.1c1.2-1,2.1-2.4,2.7-4.2
				c0.6-1.8,0.8-4.1,0.8-7.1V115.1z M308.3,144.4h-17.7v33.7h-17.1V86.8H309c11.5,0,19.8,2.1,25.1,6.2c5.3,4.1,7.9,11,7.9,20.6v3.8
				c0,6.8-1.5,12.1-4.4,16.1c-2.9,4-7.2,6.8-13,8.5l21.4,36h-19L308.3,144.4z"/>
		</g>
		<polygon class="st1" points="425.5,86.8 422.6,101.6 378,101.6 378,124 421.8,124 419,138.7 378,138.7 378,163.4 425.7,163.4 
			422.8,178.1 360.9,178.1 360.9,86.8 		"/>
		<polygon class="st1" points="514.5,178.1 514.5,112.8 493.7,152.3 479.5,152.3 458.6,113.7 458.6,178.1 441.5,178.1 441.5,86.8 
			460.4,86.8 487.2,136.4 512.6,86.8 531.5,86.8 531.5,178.1 		"/>
		<polygon class="st1" points="615.6,86.8 612.6,101.6 568,101.6 568,124 611.9,124 609,138.7 568,138.7 568,163.4 615.7,163.4 
			612.9,178.1 550.9,178.1 550.9,86.8 		"/>
		<g>
			<path class="st1" d="M648.5,163.4h17.4c4.2,0,7.8-0.4,10.7-1.1c2.9-0.7,5.3-2.1,7.1-4c1.8-1.9,3.1-4.6,3.9-8
				c0.8-3.4,1.2-7.8,1.2-13.2v-9.4c0-5.4-0.4-9.8-1.2-13.2c-0.8-3.4-2.1-6.1-3.9-8c-1.8-1.9-4.2-3.2-7.1-3.9c-2.9-0.7-6.5-1-10.7-1
				h-17.4V163.4z M631.4,86.8h35.3c7.8,0,14.2,0.8,19.4,2.5c5.1,1.7,9.2,4.2,12.2,7.5c3,3.3,5.2,7.5,6.4,12.6s1.9,10.9,1.9,17.7
				v10.6c0,6.7-0.6,12.5-1.9,17.5c-1.2,5-3.4,9.2-6.4,12.6c-3,3.4-7.1,6-12.2,7.7c-5.1,1.7-11.5,2.6-19.2,2.6h-35.5V86.8z"/>
		</g>
		<polygon class="st1" points="742.7,178.1 742.7,140.3 709.4,86.8 728.4,86.8 751.6,126 774.4,86.8 792.9,86.8 759.8,140.2 
			759.8,178.1 		"/>
		<g>
			<path class="st1" d="M309.5,274.6c4.6,0,8.4-0.3,11.3-1c2.9-0.7,5.2-2,6.9-4c1.7-2,2.8-4.8,3.5-8.4c0.6-3.6,1-8.4,1-14.3v-11.7
				c0-5.8-0.3-10.5-1-14.2c-0.6-3.6-1.8-6.5-3.5-8.5c-1.7-2-4-3.4-6.9-4c-2.9-0.7-6.7-1-11.3-1c-4.6,0-8.4,0.3-11.3,1
				c-2.9,0.7-5.2,2-6.9,4c-1.7,2-2.8,4.8-3.4,8.4c-0.6,3.6-0.9,8.4-0.9,14.3v11.7c0,5.8,0.3,10.5,0.9,14.2c0.6,3.6,1.7,6.5,3.4,8.5
				c1.7,2,4,3.4,6.9,4C301.1,274.3,304.9,274.6,309.5,274.6 M309.5,289.1c-8,0-14.6-0.9-19.8-2.6c-5.2-1.7-9.3-4.3-12.3-7.8
				c-3-3.5-5.1-7.8-6.3-13.1c-1.2-5.3-1.7-11.4-1.7-18.4v-12.4c0-6.8,0.6-12.7,1.7-18c1.1-5.2,3.2-9.6,6.2-13.1
				c3-3.5,7.1-6.2,12.2-8c5.2-1.8,11.9-2.8,20.1-2.8c8,0,14.7,0.9,19.9,2.6c5.2,1.7,9.3,4.3,12.4,7.8c3,3.5,5.1,7.8,6.3,13.1
				c1.2,5.3,1.7,11.4,1.7,18.4v12.4c0,6.8-0.6,12.7-1.7,18c-1.1,5.2-3.2,9.6-6.2,13.1c-3,3.5-7.1,6.2-12.3,8
				C324.4,288.2,317.7,289.1,309.5,289.1"/>
		</g>
		<polygon class="st1" points="382.4,195.5 426.1,258.8 426.1,195.5 443,195.5 443,286.8 428.2,286.8 384.7,224 384.7,286.8 
			367.6,286.8 367.6,195.5 		"/>
		<polygon class="st1" points="527.4,195.5 524.4,210.2 479.8,210.2 479.8,232.7 523.7,232.7 520.9,247.4 479.8,247.4 479.8,272 
			527.5,272 524.7,286.8 462.8,286.8 462.8,195.5 		"/>
	</g>
</g>
<g id="Layer_51">
</g>
<g id="Layer_50">
</g>
<g id="Layer_49">
</g>
<g id="Layer_47">
	<g>
		<path class="st2" d="M-1107.2-70.9v-11.3c0-5.2-4.2-9.4-9.4-9.4s-9.4,4.2-9.4,9.4v11.3H-1107.2z"/>
		<path class="st2" d="M-1126.1-68v11.3c0,5.2,4.2,9.4,9.4,9.4s9.4-4.2,9.4-9.4V-68H-1126.1z"/>
	</g>
</g>
<g id="Layer_45">
	<g>
		<path class="st2" d="M-1039.8,154.8v-11.3c0-5.2-4.2-9.4-9.4-9.4s-9.4,4.2-9.4,9.4v11.3H-1039.8z"/>
		<path class="st2" d="M-1058.6,157.7V169c0,5.2,4.2,9.4,9.4,9.4s9.4-4.2,9.4-9.4v-11.3H-1058.6z"/>
	</g>
</g>
<g id="Layer_43">
	<g>
		<path class="st2" d="M-1076.8-54.4l-7.2-8.7c-3.3-4-9.3-4.6-13.3-1.3c-4,3.3-4.6,9.3-1.3,13.3l7.2,8.7L-1076.8-54.4z"/>
		<path class="st2" d="M-1089.6-40.1l7.2,8.7c3.3,4,9.3,4.6,13.3,1.3c4-3.3,4.6-9.3,1.3-13.3l-7.2-8.7L-1089.6-40.1z"/>
	</g>
</g>
<g id="Layer_41">
	<g>
		<path class="st2" d="M-1039.8-21.3l-8.9-7c-4.1-3.2-10-2.5-13.3,1.6c-3.2,4.1-2.5,10,1.6,13.3l8.9,7L-1039.8-21.3z"/>
		<path class="st2" d="M-1049.2-4.7l8.9,7c4.1,3.2,10,2.5,13.3-1.6c3.2-4.1,2.5-10-1.6-13.3l-8.9-7L-1049.2-4.7z"/>
	</g>
</g>
<g id="Layer_39">
	<g>
		<path class="st2" d="M-954.7,142.5l-8.9-7c-4.1-3.2-10-2.5-13.3,1.6c-3.2,4.1-2.5,10,1.6,13.3l8.9,7L-954.7,142.5z"/>
		<path class="st2" d="M-964.2,159.1l8.9,7c4.1,3.2,10,2.5,13.3-1.6c3.2-4.1,2.5-10-1.6-13.3l-8.9-7L-964.2,159.1z"/>
	</g>
</g>
<g id="Layer_37">
	<g>
		<path class="st2" d="M-948,79.8l-4.8-10.2c-2.2-4.7-7.9-6.7-12.6-4.5c-4.7,2.2-6.7,7.9-4.5,12.6l4.8,10.2L-948,79.8z"/>
		<path class="st2" d="M-963.9,90.6l4.8,10.2c2.2,4.7,7.9,6.7,12.6,4.5c4.7-2.2,6.7-7.9,4.5-12.6l-4.8-10.2L-963.9,90.6z"/>
	</g>
</g>
<g id="Layer_35">
	<g>
		<path class="st2" d="M-979,26.7l-2.6-11c-1.2-5.1-6.3-8.2-11.4-7s-8.2,6.3-7,11.4l2.6,11L-979,26.7z"/>
		<path class="st2" d="M-996.7,33.9l2.6,11c1.2,5.1,6.3,8.2,11.4,7c5.1-1.2,8.2-6.3,7-11.4l-2.6-11L-996.7,33.9z"/>
	</g>
</g>
<g id="Layer_33">
	<g>
		<path class="st2" d="M-979-5.1l-2.6-11c-1.2-5.1-6.3-8.2-11.4-7s-8.2,6.3-7,11.4l2.6,11L-979-5.1z"/>
		<path class="st2" d="M-996.7,2.2l2.6,11c1.2,5.1,6.3,8.2,11.4,7c5.1-1.2,8.2-6.3,7-11.4l-2.6-11L-996.7,2.2z"/>
	</g>
</g>
<g id="Layer_31">
	<g>
		<path class="st2" d="M-1010.8,41.8l3.1-10.9c1.5-5-1.4-10.2-6.4-11.7c-5-1.4-10.2,1.4-11.7,6.4l-3.1,10.9L-1010.8,41.8z"/>
		<path class="st2" d="M-1029.8,39.3l-3.1,10.9c-1.5,5,1.4,10.2,6.4,11.7c5,1.5,10.2-1.4,11.7-6.4l3.1-10.9L-1029.8,39.3z"/>
	</g>
</g>
<g id="Layer_29">
	<g>
		<path class="st2" d="M-1027.6,78.5l3.1-10.9c1.5-5-1.4-10.2-6.4-11.7c-5-1.5-10.2,1.4-11.7,6.4l-3.1,10.9L-1027.6,78.5z"/>
		<path class="st2" d="M-1046.6,76l-3.1,10.9c-1.5,5,1.4,10.2,6.4,11.7c5,1.5,10.2-1.4,11.7-6.4l3.1-10.9L-1046.6,76z"/>
	</g>
</g>
<g id="Layer_27">
	<g>
		<path class="st2" d="M-1006.3,181.9l3.1-10.9c1.5-5-1.4-10.2-6.4-11.7c-5-1.5-10.2,1.4-11.7,6.4l-3.1,10.9L-1006.3,181.9z"/>
		<path class="st2" d="M-1025.2,179.4l-3.1,10.9c-1.5,5,1.4,10.2,6.4,11.7c5,1.5,10.2-1.4,11.7-6.4l3.1-10.9L-1025.2,179.4z"/>
	</g>
</g>
<g id="Layer_25">
	<g>
		<path class="st2" d="M-971,180.6l3.1-10.9c1.5-5-1.4-10.2-6.4-11.7c-5-1.5-10.2,1.4-11.7,6.4l-3.1,10.9L-971,180.6z"/>
		<path class="st2" d="M-989.9,178.2l-3.1,10.9c-1.5,5,1.4,10.2,6.4,11.7c5,1.5,10.2-1.4,11.7-6.4l3.1-10.9L-989.9,178.2z"/>
	</g>
</g>
<g id="Layer_23">
	<g>
		<path class="st2" d="M-959.9,204.3l-10.1-5.1c-4.6-2.4-10.3-0.5-12.7,4.1c-2.4,4.6-0.5,10.3,4.1,12.7l10.1,5.1L-959.9,204.3z"/>
		<path class="st2" d="M-965.9,222.4l10.1,5.1c4.6,2.4,10.3,0.5,12.7-4.1c2.4-4.6,0.5-10.3-4.1-12.7l-10.1-5.1L-965.9,222.4z"/>
	</g>
</g>
<g id="Layer_21">
	<g>
		<path class="st2" d="M-995.7,219.5l-10.1-5.1c-4.6-2.4-10.3-0.5-12.7,4.1c-2.4,4.6-0.5,10.3,4.1,12.7l10.1,5.1L-995.7,219.5z"/>
		<path class="st2" d="M-1001.7,237.7l10.1,5.1c4.6,2.4,10.3,0.5,12.7-4.1c2.4-4.6,0.5-10.3-4.1-12.7l-10.1-5.1L-1001.7,237.7z"/>
	</g>
</g>
<g id="Layer_19">
	<g>
		<path class="st2" d="M-1003.2,256.8l-3.8-10.7c-1.7-4.9-7.1-7.5-12.1-5.8c-4.9,1.7-7.5,7.1-5.8,12.1l3.8,10.7L-1003.2,256.8z"/>
		<path class="st2" d="M-1020.1,265.8l3.8,10.7c1.7,4.9,7.1,7.5,12.1,5.8c4.9-1.7,7.5-7.1,5.8-12.1l-3.8-10.7L-1020.1,265.8z"/>
	</g>
</g>
<g id="Layer_17">
	<g>
		<path class="st2" d="M-1021.6,291.4l-7.9-8.1c-3.7-3.7-9.6-3.8-13.4-0.1c-3.7,3.7-3.8,9.6-0.1,13.4l7.9,8.1L-1021.6,291.4z"/>
		<path class="st2" d="M-1033.1,306.8l7.9,8.1c3.7,3.7,9.6,3.8,13.4,0.1c3.7-3.7,3.8-9.6,0.1-13.4l-7.9-8.1L-1033.1,306.8z"/>
	</g>
</g>
<g id="Layer_15">
	<g>
		<path class="st2" d="M-959,258.6l-3.8-10.7c-1.7-4.9-7.1-7.5-12.1-5.8c-4.9,1.7-7.5,7.1-5.8,12.1l3.8,10.7L-959,258.6z"/>
		<path class="st2" d="M-975.9,267.6l3.8,10.7c1.7,4.9,7.1,7.5,12.1,5.8c4.9-1.7,7.5-7.1,5.8-12.1l-3.8-10.7L-975.9,267.6z"/>
	</g>
</g>
<g id="Layer_13">
	<g>
		<path class="st2" d="M-993.5,83.8l-9.9-5.4c-4.6-2.5-10.3-0.8-12.8,3.8c-2.5,4.6-0.8,10.3,3.8,12.8l9.9,5.4L-993.5,83.8z"/>
		<path class="st2" d="M-999.9,101.8l9.9,5.4c4.6,2.5,10.3,0.8,12.8-3.8c2.5-4.6,0.8-10.3-3.8-12.8l-9.9-5.4L-999.9,101.8z"/>
	</g>
</g>
<g id="Layer_12">
</g>
<g id="Layer_11">
	<g>
		<path class="st2" d="M-983.6,110l-5.6-9.8c-2.6-4.5-8.3-6.1-12.9-3.6c-4.5,2.6-6.1,8.3-3.6,12.9l5.6,9.8L-983.6,110z"/>
		<path class="st2" d="M-998.7,121.9l5.6,9.8c2.6,4.5,8.3,6.1,12.9,3.6c4.5-2.6,6.1-8.3,3.6-12.9l-5.6-9.8L-998.7,121.9z"/>
	</g>
</g>
<g id="Layer_10">
</g>
<g id="Layer_9">
	<g>
		<path class="st2" d="M-1004.1,143.2l-5.6-9.8c-2.6-4.5-8.3-6.1-12.9-3.6c-4.5,2.6-6.1,8.3-3.6,12.9l5.6,9.8L-1004.1,143.2z"/>
		<path class="st2" d="M-1019.1,155l5.6,9.8c2.6,4.5,8.3,6.1,12.9,3.6c4.5-2.6,6.1-8.3,3.6-12.9l-5.6-9.8L-1019.1,155z"/>
	</g>
</g>
<g id="Layer_8">
</g>
<g id="Layer_7">
	<g>
		<path class="st2" d="M-1035-55.6l-8.9-7c-4.1-3.2-10-2.5-13.3,1.6c-3.2,4.1-2.5,10,1.6,13.3l8.9,7L-1035-55.6z"/>
		<path class="st2" d="M-1044.5-38.9l8.9,7c4.1,3.2,10,2.5,13.3-1.6c3.2-4.1,2.5-10-1.6-13.3l-8.9-7L-1044.5-38.9z"/>
	</g>
</g>
<g id="Layer_6">
</g>
<g id="Layer_5">
	<g>
		<path class="st2" d="M-1091.4-6.8l3.8-10.6c1.8-4.9-0.8-10.3-5.7-12.1c-4.9-1.8-10.3,0.8-12.1,5.7l-3.8,10.6L-1091.4-6.8z"/>
		<path class="st2" d="M-1110.1-10.5l-3.8,10.6c-1.8,4.9,0.8,10.3,5.7,12.1c4.9,1.8,10.3-0.8,12.1-5.7l3.8-10.6L-1110.1-10.5z"/>
	</g>
</g>
<g id="Layer_4">
</g>
<g id="Layer_3">
	<g>
		<path class="st2" d="M-1064.4,9l-2.9-10.9c-1.3-5-6.5-8.1-11.5-6.7c-5,1.3-8.1,6.5-6.7,11.5l2.9,10.9L-1064.4,9z"/>
		<path class="st2" d="M-1082,16.6l2.9,10.9c1.3,5,6.5,8.1,11.5,6.7c5-1.3,8.1-6.5,6.7-11.5l-2.9-10.9L-1082,16.6z"/>
	</g>
</g>
<g id="Layer_2">
	<g>
		<path class="st3" d="M-1093.6-136.1l-42.8,48.5c-2.3,2.6-6.2,2.8-8.8,0.5l-25.9-22.8c-2.6-2.3-2.8-6.2-0.5-8.8l42.8-48.5
			c2.3-2.6,6.2-2.8,8.8-0.5l25.9,22.8C-1091.6-142.6-1091.4-138.7-1093.6-136.1"/>
		<path class="st3" d="M-1229.8-193l51.3-58.1l12.4,10.9l-51.3,58.1L-1229.8-193z M-1171.6-118.7l42.8-48.5l-17.4-55.4l-107.7-95
			c-5.9-5.2-14.9-4.6-20.1,1.3l-63.6,72.1c-5.2,5.9-4.6,14.9,1.3,20.1l107.7,95L-1171.6-118.7z"/>
	</g>
</g>
</svg>
