<svg width="16" height="14" viewBox="0 0 16 14" fill="none" xmlns="http://www.w3.org/2000/svg">
<path d="M15.795 12.1039L12.8589 9.37799C12.7264 9.25496 12.5467 9.1866 12.3582 9.1866H11.8782C12.691 8.22146 13.174 7.00752 13.174 5.68694C13.174 2.54545 10.4323 0 7.04854 0C3.66482 0 0.923096 2.54545 0.923096 5.68694C0.923096 8.82843 3.66482 11.3739 7.04854 11.3739C8.47094 11.3739 9.77849 10.9255 10.8181 10.1709V10.6165C10.8181 10.7915 10.8917 10.9583 11.0242 11.0813L13.9603 13.8072C14.2371 14.0643 14.6847 14.0643 14.9586 13.8072L15.792 13.0335C16.0689 12.7765 16.0689 12.3609 15.795 12.1039ZM7.04854 9.1866C4.96648 9.1866 3.27904 7.62269 3.27904 5.68694C3.27904 3.75393 4.96354 2.18729 7.04854 2.18729C9.13061 2.18729 10.8181 3.7512 10.8181 5.68694C10.8181 7.61996 9.13355 9.1866 7.04854 9.1866Z" fill="#5801FF"/>
</svg>
