<svg width="13" height="9" viewBox="0 0 13 9" fill="none" xmlns="http://www.w3.org/2000/svg">
<path d="M12.3002 4.18633C11.1351 1.91307 8.82856 0.375 6.18749 0.375C3.54641 0.375 1.23921 1.91414 0.0747539 4.18654C0.0256066 4.28376 0 4.39117 0 4.50011C0 4.60904 0.0256066 4.71645 0.0747539 4.81367C1.23985 7.08693 3.54641 8.625 6.18749 8.625C8.82856 8.625 11.1358 7.08586 12.3002 4.81346C12.3494 4.71624 12.375 4.60883 12.375 4.49989C12.375 4.39096 12.3494 4.28355 12.3002 4.18633ZM6.18749 7.59375C5.5756 7.59375 4.97746 7.4123 4.46869 7.07236C3.95993 6.73241 3.56339 6.24924 3.32924 5.68393C3.09508 5.11862 3.03381 4.49657 3.15318 3.89644C3.27256 3.29631 3.56721 2.74506 3.99988 2.31239C4.43254 1.87972 4.9838 1.58507 5.58393 1.4657C6.18406 1.34632 6.80611 1.40759 7.37141 1.64175C7.93672 1.87591 8.4199 2.27244 8.75985 2.7812C9.09979 3.28997 9.28124 3.88811 9.28124 4.5C9.28144 4.90633 9.20155 5.30872 9.04614 5.68416C8.89074 6.0596 8.66286 6.40073 8.37554 6.68805C8.08822 6.97537 7.74709 7.20325 7.37165 7.35865C6.99621 7.51406 6.59382 7.59395 6.18749 7.59375ZM6.18749 2.4375C6.00339 2.44007 5.82049 2.46746 5.64372 2.51893C5.78943 2.71694 5.85935 2.96062 5.84081 3.20577C5.82226 3.45092 5.71648 3.6813 5.54263 3.85515C5.36879 4.02899 5.13841 4.13477 4.89326 4.15332C4.64811 4.17186 4.40443 4.10194 4.20641 3.95623C4.09366 4.37165 4.11401 4.81197 4.26461 5.21522C4.41521 5.61846 4.68848 5.96433 5.04594 6.20413C5.4034 6.44394 5.82707 6.56561 6.2573 6.55202C6.68754 6.53842 7.10268 6.39026 7.4443 6.12837C7.78591 5.86648 8.0368 5.50405 8.16165 5.09211C8.2865 4.68016 8.27902 4.23943 8.14027 3.83196C8.00151 3.42449 7.73847 3.07078 7.38817 2.82063C7.03787 2.57048 6.61794 2.43649 6.18749 2.4375Z" fill="#707683"/>
</svg>
