<svg width="16" height="16" viewBox="0 0 16 16" fill="none" xmlns="http://www.w3.org/2000/svg">
<path fill-rule="evenodd" clip-rule="evenodd" d="M1.84766 6.68001C1.84766 3.61072 4.27837 1.1416 7.25357 1.1416C10.2288 1.1416 12.6595 3.61072 12.6595 6.68001C12.6595 9.74931 10.2288 12.2184 7.25357 12.2184C4.27837 12.2184 1.84766 9.74931 1.84766 6.68001ZM7.25357 0.141602C3.70528 0.141602 0.847656 3.07946 0.847656 6.68001C0.847656 10.2806 3.70528 13.2184 7.25357 13.2184C8.84512 13.2184 10.2977 12.6274 11.4158 11.6505L14.7707 15.0807C14.9638 15.2781 15.2803 15.2816 15.4778 15.0885C15.6752 14.8954 15.6787 14.5789 15.4856 14.3815L12.1162 10.9365C13.0789 9.7912 13.6595 8.30293 13.6595 6.68001C13.6595 3.07946 10.8019 0.141602 7.25357 0.141602Z" fill="#999999"/>
</svg>
