<svg width="32" height="22" viewBox="0 0 32 22" fill="none" xmlns="http://www.w3.org/2000/svg">
<path d="M26.88 9.55625C27.085 9.0308 27.2 8.45625 27.2 7.85714C27.2 5.25446 25.05 3.14286 22.4 3.14286C21.415 3.14286 20.495 3.4375 19.735 3.93839C18.35 1.58125 15.765 0 12.8 0C8.38 0 4.8 3.51607 4.8 7.85714C4.8 7.98973 4.805 8.12232 4.81 8.25491C2.01 9.22232 0 11.8446 0 14.9286C0 18.8326 3.225 22 7.2 22H25.6C29.135 22 32 19.1862 32 15.7143C32 12.6746 29.8 10.1357 26.88 9.55625ZM19.67 12.5714H16.4V18.0714C16.4 18.5036 16.04 18.8571 15.6 18.8571H13.2C12.76 18.8571 12.4 18.5036 12.4 18.0714V12.5714H9.13C8.415 12.5714 8.06 11.7268 8.565 11.2308L13.835 6.05491C14.145 5.75045 14.655 5.75045 14.965 6.05491L20.235 11.2308C20.74 11.7268 20.38 12.5714 19.67 12.5714Z" fill="#BBBBBB"/>
</svg>
