<svg width="14" height="14" viewBox="0 0 14 14" fill="none" xmlns="http://www.w3.org/2000/svg">
<path d="M0.508584 0.672938L3.35228 0.0167016C3.66125 -0.0543907 3.97844 0.106934 4.10421 0.396772L5.41669 3.45921C5.53153 3.72717 5.45497 4.04162 5.22802 4.22482L3.57102 5.58104C4.55538 7.67826 6.27526 9.42275 8.41623 10.4262L9.77246 8.76925C9.95839 8.5423 10.2701 8.46574 10.5381 8.58058L13.6005 9.89305C13.8931 10.0216 14.0544 10.3387 13.9833 10.6477L13.3271 13.4914C13.2587 13.7867 12.9962 14 12.6872 14C5.68465 14 0 8.32629 0 1.31277C0 1.00652 0.210544 0.741296 0.508584 0.672938Z" fill="#707683"/>
</svg>
