<svg width="12" height="9" viewBox="0 0 12 9" fill="none" xmlns="http://www.w3.org/2000/svg">
<path d="M11.7727 2.97188C11.8641 2.89922 12 2.96719 12 3.08203V7.875C12 8.49609 11.4961 9 10.875 9H1.125C0.503906 9 0 8.49609 0 7.875V3.08438C0 2.96719 0.133594 2.90156 0.227344 2.97422C0.752344 3.38203 1.44844 3.9 3.83906 5.63672C4.33359 5.99766 5.16797 6.75703 6 6.75234C6.83672 6.75938 7.6875 5.98359 8.16328 5.63672C10.5539 3.9 11.2477 3.37969 11.7727 2.97188ZM6 6C6.54375 6.00938 7.32656 5.31563 7.72031 5.02969C10.8305 2.77266 11.0672 2.57578 11.7844 2.01328C11.9203 1.90781 12 1.74375 12 1.57031V1.125C12 0.503906 11.4961 0 10.875 0H1.125C0.503906 0 0 0.503906 0 1.125V1.57031C0 1.74375 0.0796875 1.90547 0.215625 2.01328C0.932813 2.57344 1.16953 2.77266 4.27969 5.02969C4.67344 5.31563 5.45625 6.00938 6 6Z" fill="#666666"/>
</svg>
