<svg width="17" height="14" viewBox="0 0 17 14" fill="none" xmlns="http://www.w3.org/2000/svg">
<path d="M4.92227 0.114373C4.88614 0.0781206 4.84321 0.0493564 4.79594 0.0297297C4.74868 0.010103 4.698 0 4.64682 0C4.59564 0 4.54497 0.010103 4.4977 0.0297297C4.45043 0.0493564 4.4075 0.0781206 4.37138 0.114373L2.30781 2.16595L1.57222 1.44914C1.53609 1.41289 1.49316 1.38413 1.44589 1.3645C1.39863 1.34487 1.34795 1.33477 1.29677 1.33477C1.24559 1.33477 1.19492 1.34487 1.14765 1.3645C1.10038 1.38413 1.05745 1.41289 1.02133 1.44914L0.512566 1.95855C0.476314 1.99468 0.44755 2.03761 0.427923 2.08487C0.408296 2.13214 0.398193 2.18282 0.398193 2.234C0.398193 2.28518 0.408296 2.33585 0.427923 2.38312C0.44755 2.43039 0.476314 2.47331 0.512566 2.50944L2.05473 4.04545C2.13171 4.11862 2.23385 4.15942 2.34006 4.15942C2.44626 4.15942 2.54841 4.11862 2.62539 4.04545L3.13058 3.53928L5.47024 1.19995C5.54314 1.12699 5.58433 1.02823 5.58487 0.925102C5.58542 0.82197 5.54527 0.722782 5.47315 0.649059L4.92227 0.114373ZM4.92227 5.27296C4.88614 5.2367 4.84321 5.20794 4.79594 5.18831C4.74868 5.16869 4.698 5.15858 4.64682 5.15858C4.59564 5.15858 4.54497 5.16869 4.4977 5.18831C4.45043 5.20794 4.4075 5.2367 4.37138 5.27296L2.30781 7.33782L1.57222 6.62166C1.53609 6.58541 1.49316 6.55664 1.44589 6.53702C1.39863 6.51739 1.34795 6.50729 1.29677 6.50729C1.24559 6.50729 1.19492 6.51739 1.14765 6.53702C1.10038 6.55664 1.05745 6.58541 1.02133 6.62166L0.512566 7.1301C0.476314 7.16622 0.44755 7.20915 0.427923 7.25642C0.408296 7.30369 0.398193 7.35436 0.398193 7.40554C0.398193 7.45672 0.408296 7.5074 0.427923 7.55467C0.44755 7.60193 0.476314 7.64486 0.512566 7.68099L2.05084 9.22023C2.12776 9.29338 2.22986 9.33418 2.33601 9.33418C2.44216 9.33418 2.54425 9.29338 2.62117 9.22023L3.12993 8.7118L5.46959 6.37149C5.54221 6.29905 5.58326 6.20084 5.58381 6.09827C5.58435 5.99569 5.54435 5.89706 5.47251 5.82384L4.92227 5.27296ZM2.47211 10.8891C1.61369 10.8891 0.89754 11.5858 0.89754 12.4446C0.89754 13.3033 1.61434 14 2.47211 14C2.88464 14 3.28027 13.8361 3.57198 13.5444C3.86368 13.2527 4.02756 12.8571 4.02756 12.4446C4.02756 12.032 3.86368 11.6364 3.57198 11.3447C3.28027 11.053 2.88464 10.8891 2.47211 10.8891ZM16.4712 11.4076H7.13846C7.00095 11.4076 6.86907 11.4622 6.77183 11.5594C6.6746 11.6567 6.61997 11.7886 6.61997 11.9261V12.963C6.61997 13.1005 6.6746 13.2324 6.77183 13.3297C6.86907 13.4269 7.00095 13.4815 7.13846 13.4815H16.4712C16.6087 13.4815 16.7405 13.4269 16.8378 13.3297C16.935 13.2324 16.9896 13.1005 16.9896 12.963V11.9261C16.9896 11.7886 16.935 11.6567 16.8378 11.5594C16.7405 11.4622 16.6087 11.4076 16.4712 11.4076ZM16.4712 1.03792H7.13846C7.00095 1.03792 6.86907 1.09255 6.77183 1.18978C6.6746 1.28702 6.61997 1.41889 6.61997 1.5564V2.59337C6.61997 2.73088 6.6746 2.86276 6.77183 2.95999C6.86907 3.05723 7.00095 3.11185 7.13846 3.11185H16.4712C16.6087 3.11185 16.7405 3.05723 16.8378 2.95999C16.935 2.86276 16.9896 2.73088 16.9896 2.59337V1.5564C16.9896 1.41889 16.935 1.28702 16.8378 1.18978C16.7405 1.09255 16.6087 1.03792 16.4712 1.03792ZM16.4712 6.22275H7.13846C7.00095 6.22275 6.86907 6.27738 6.77183 6.37461C6.6746 6.47185 6.61997 6.60373 6.61997 6.74124V7.7782C6.61997 7.91571 6.6746 8.04759 6.77183 8.14483C6.86907 8.24206 7.00095 8.29669 7.13846 8.29669H16.4712C16.6087 8.29669 16.7405 8.24206 16.8378 8.14483C16.935 8.04759 16.9896 7.91571 16.9896 7.7782V6.74124C16.9896 6.60373 16.935 6.47185 16.8378 6.37461C16.7405 6.27738 16.6087 6.22275 16.4712 6.22275Z" fill="#E5E5E5"/>
</svg>
