<svg width="14" height="12" viewBox="0 0 14 12" fill="none" xmlns="http://www.w3.org/2000/svg">
<path d="M9.31944 1.95083L11.4074 4.06489C11.4954 4.15395 11.4954 4.29926 11.4074 4.38833L6.35185 9.50707L4.2037 9.74848C3.91667 9.78129 3.67361 9.5352 3.70602 9.24457L3.94444 7.06957L9 1.95083C9.08796 1.86177 9.23148 1.86177 9.31944 1.95083ZM13.0694 1.41411L11.9398 0.270361C11.588 -0.0858886 11.0162 -0.0858886 10.662 0.270361L9.84259 1.10005C9.75463 1.18911 9.75463 1.33442 9.84259 1.42349L11.9306 3.53755C12.0185 3.62661 12.162 3.62661 12.25 3.53755L13.0694 2.70786C13.4213 2.34927 13.4213 1.77036 13.0694 1.41411ZM8.88889 8.11489V10.5008H1.48148V3.00083H6.80093C6.875 3.00083 6.94444 2.97036 6.99769 2.9188L7.92361 1.9813C8.09954 1.80317 7.97454 1.50083 7.72685 1.50083H1.11111C0.497685 1.50083 0 2.00473 0 2.62583V10.8758C0 11.4969 0.497685 12.0008 1.11111 12.0008H9.25926C9.87269 12.0008 10.3704 11.4969 10.3704 10.8758V7.17739C10.3704 6.92661 10.0718 6.80239 9.89583 6.97817L8.96991 7.91567C8.91898 7.96957 8.88889 8.03989 8.88889 8.11489Z" fill="#1D54B4"/>
</svg>
